<svg width="128" height="129" viewBox="0 0 128 129" fill="none" xmlns="http://www.w3.org/2000/svg">
<path d="M18.8138 114.295L8.75977 1.52417H119.24L109.176 114.278L63.9328 126.821L18.8138 114.295Z" fill="#1572B6"/>
<path d="M64.001 117.235L100.56 107.099L109.161 10.7449H64.001V117.235Z" fill="#33A9DC"/>
<path d="M64.001 51.6012H82.303L83.567 37.4382H64.001V23.6072H98.683L98.351 27.3182L94.951 65.4322H64.001V51.6012Z" fill="white"/>
<path d="M64.083 87.5214L64.022 87.5394L48.619 83.3804L47.634 72.3494H33.752L35.689 94.0664L64.02 101.929L64.083 101.911V87.5214Z" fill="#EBEBEB"/>
<path d="M81.127 64.8476L79.461 83.3696L64.035 87.5336V101.924L92.389 94.0656L92.597 91.7286L95.003 64.8476H81.127Z" fill="white"/>
<path d="M64.0479 23.6072V37.4382H30.6399L30.3629 34.3302L29.7329 27.3182L29.4019 23.6072H64.0479ZM64.0009 51.6032V65.4342H48.7919L48.5149 62.3262L47.8839 55.3142L47.5539 51.6032H64.0009Z" fill="#EBEBEB"/>
</svg>
