<svg width="128" height="130" viewBox="0 0 128 130" fill="none" xmlns="http://www.w3.org/2000/svg">
<path d="M45.5 129.208C57.4 129.208 67 119.608 67 107.708V86.2083H45.5C33.6 86.2083 24 95.8083 24 107.708C24 119.608 33.6 129.208 45.5 129.208Z" fill="#0ACF83"/>
<path d="M24 64.7083C24 52.8083 33.6 43.2083 45.5 43.2083H67V86.2083H45.5C33.6 86.2083 24 76.6083 24 64.7083Z" fill="#A259FF"/>
<path d="M24 21.7083C24 9.80825 33.6 0.208252 45.5 0.208252H67V43.2083H45.5C33.6 43.2083 24 33.6083 24 21.7083Z" fill="#F24E1E"/>
<path d="M67 0.208252H88.5C100.4 0.208252 110 9.80825 110 21.7083C110 33.6083 100.4 43.2083 88.5 43.2083H67V0.208252Z" fill="#FF7262"/>
<path d="M110 64.7083C110 76.6083 100.4 86.2083 88.5 86.2083C76.6 86.2083 67 76.6083 67 64.7083C67 52.8083 76.6 43.2083 88.5 43.2083C100.4 43.2083 110 52.8083 110 64.7083Z" fill="#1ABCFE"/>
</svg>
