<svg width="129" height="129" viewBox="0 0 129 129" fill="none" xmlns="http://www.w3.org/2000/svg">
<path d="M125.237 58.7948L70.121 3.68076C66.949 0.506763 61.801 0.506763 58.624 3.68076L47.18 15.1268L61.698 29.6448C65.073 28.5058 68.941 29.2698 71.63 31.9588C74.333 34.6648 75.091 38.5658 73.924 41.9518L87.916 55.9448C91.301 54.7778 95.208 55.5318 97.91 58.2398C101.69 62.0168 101.69 68.1398 97.91 71.9188C97.0117 72.8175 95.9452 73.5304 94.7713 74.0168C93.5974 74.5032 92.3392 74.7536 91.0685 74.7536C89.7978 74.7536 88.5396 74.5032 87.3657 74.0168C86.1919 73.5304 85.1253 72.8175 84.227 71.9188C82.8774 70.5683 81.9574 68.8488 81.5829 66.9767C81.2083 65.1046 81.3959 63.1635 82.122 61.3978L69.074 48.3498L69.072 82.6908C70.0187 83.157 70.883 83.7744 71.631 84.5188C75.409 88.2958 75.409 94.4168 71.631 98.2018C67.852 101.979 61.727 101.979 57.952 98.2018C54.174 94.4178 54.174 88.2968 57.952 84.5188C58.8572 83.6122 59.9338 82.8949 61.119 82.4088V47.7498C59.9328 47.265 58.8559 46.5471 57.952 45.6388C55.09 42.7788 54.401 38.5788 55.869 35.0628L41.556 20.7498L3.76401 58.5398C2.23933 60.0649 1.38281 62.1332 1.38281 64.2898C1.38281 66.4463 2.23933 68.5146 3.76401 70.0398L58.881 125.154C62.055 128.328 67.201 128.328 70.38 125.154L125.238 70.2958C126.762 68.7702 127.619 66.7017 127.618 64.5451C127.618 62.3884 126.762 60.3201 125.237 58.7948V58.7948Z" fill="#F34F29"/>
</svg>
