<svg width="128" height="129" viewBox="0 0 128 129" fill="none" xmlns="http://www.w3.org/2000/svg">
<path d="M6.19999 53.2178C12.9 56.4178 49.9 71.3178 55.7 74.1178C61.5 76.9178 65.7 76.9178 73.1 73.1178C80.5 69.2178 115.3 55.0178 122 51.5178C125.4 49.7178 126.9 48.3178 126.9 47.1178V34.6178C126.9 33.3178 125.2 32.2178 121.9 31.0178C115.4 28.6178 80.8 14.9178 74.2 12.4178C67.6 10.0178 64.9 10.1178 57.1 12.9178C49.3 15.7178 12.6 30.1178 5.99999 32.7178C2.79999 34.0178 0.999988 35.1178 0.999988 36.4178H0.799988V49.1178C0.999988 50.3178 2.89999 51.6178 6.19999 53.2178V53.2178ZM66.6 55.0178L46.3 46.6178L75.4 42.1178L66.6 55.0178V55.0178ZM110.7 35.0178L93.5 41.8178L91.6 42.5178L74.4 35.7178L93.5 28.2178L110.7 35.0178V35.0178ZM60.1 22.5178L57.3 17.3178L66.1 20.7178L74.4 18.0178L72.2 23.4178L80.6 26.6178L69.7 27.7178L67.3 33.6178L63.4 27.1178L50.8 26.0178L60.1 22.5178V22.5178ZM38.4 29.8178C47 29.8178 54 32.5178 54 35.8178C54 39.1178 47 41.8178 38.4 41.8178C29.8 41.8178 22.8 39.1178 22.8 35.8178C22.8 32.5178 29.8 29.8178 38.4 29.8178V29.8178ZM122 60.3178C115.3 63.8178 80.6 78.1178 73.2 81.9178C65.8 85.8178 61.7 85.7178 55.9 82.9178C50.1 80.1178 12.9 65.2178 6.29999 62.0178C2.89999 60.4178 0.999988 59.1178 0.999988 57.8178V70.5178C0.999988 71.8178 2.89999 73.1178 6.19999 74.7178C12.9 77.9178 49.9 92.8178 55.7 95.6178C61.5 98.4178 65.7 98.4178 73.1 94.6178C80.5 90.7178 115.3 76.5178 122 73.0178C125.4 71.2178 126.9 69.8178 126.9 68.6178V56.1178C126.9 57.2178 125.3 58.6178 122 60.3178V60.3178ZM122 81.0178C115.3 84.5178 80.6 98.8178 73.2 102.618C65.8 106.518 61.7 106.418 55.9 103.618C50.1 100.818 12.9 85.9178 6.29999 82.7178C2.89999 81.2178 0.999988 79.8178 0.999988 78.5178V91.2178C0.999988 92.5178 2.89999 93.8178 6.19999 95.4178C12.9 98.6178 49.9 113.518 55.7 116.318C61.5 119.118 65.7 119.118 73.1 115.318C80.5 111.418 115.3 97.2178 122 93.7178C125.4 91.9178 126.9 90.5178 126.9 89.3178V76.8178C126.9 78.0178 125.3 79.3178 122 81.0178Z" fill="#D82C20"/>
</svg>
