<svg width="128" height="129" viewBox="0 0 128 129" fill="none" xmlns="http://www.w3.org/2000/svg">
<path d="M88.69 88.8361C79.69 107.236 63.93 119.616 43.08 123.686C39.8831 124.469 36.6013 124.852 33.31 124.826C21.31 124.826 10.31 119.826 4.97 111.636C-2.2 100.726 -4.64 77.5961 19 60.4861C19.48 63.0961 20.46 66.6761 21.11 68.7961C16.4693 72.2437 12.6708 76.6988 10 81.8261C5.6 90.4661 6.09 99.0961 11.3 107.076C14.9 112.456 20.6 115.726 27.93 116.726C37.0854 117.885 46.3733 116.136 54.48 111.726C67.19 105.046 75.66 97.0661 81.2 86.1561C79.6335 84.5372 78.7063 82.4058 78.59 80.1561C78.5063 77.7419 79.3837 75.3932 81.0298 73.6253C82.6758 71.8573 84.956 70.8147 87.37 70.7261H87.71C90.058 70.7143 92.3206 71.6056 94.0297 73.2155C95.7389 74.8255 96.7637 77.0309 96.8921 79.3753C97.0206 81.7198 96.2429 84.0239 94.7199 85.811C93.1969 87.598 91.0452 88.7312 88.71 88.9761L88.69 88.8361ZM117.36 68.6361C129.57 82.4761 129.9 98.7661 125.18 108.216C120.78 116.846 109.18 125.486 93.58 125.486C86.2976 125.338 79.1337 123.615 72.58 120.436C74.87 118.806 78.12 116.196 79.91 114.566C84.9639 116.756 90.4027 117.918 95.91 117.986C106.01 117.986 113.66 113.266 118.22 104.636C121.15 98.9361 121.32 92.2561 118.55 85.4161C115.151 76.8099 109.103 69.5079 101.28 64.5661C91.0167 57.6475 78.9175 53.9592 66.54 53.9761H63.61C62.9268 55.5543 61.8153 56.9098 60.4014 57.8889C58.9875 58.868 57.3277 59.4317 55.61 59.5161H55.3C52.9242 59.4869 50.6533 58.5326 48.9697 56.856C47.2861 55.1794 46.3225 52.9125 46.2834 50.5368C46.2444 48.1611 47.133 45.8638 48.7606 44.1327C50.3881 42.4017 52.6264 41.3733 55 41.2661H55.33C56.9841 41.2673 58.6058 41.7243 60.0171 42.587C61.4284 43.4497 62.5746 44.6845 63.33 46.1561H65.94C86.74 46.1561 105 54.1361 117.36 68.6361V68.6361ZM34.61 91.6361C34.4388 89.9755 34.841 88.3063 35.75 86.9061C26.63 71.1061 21.75 51.0761 29.24 30.2261C34.61 14.5561 48.13 3.96606 62.79 3.96606C78.43 3.96606 94.72 17.6561 96.67 44.0361C94.23 43.2261 90.67 42.0361 88.53 41.5961C88 32.9661 80.71 11.4661 63.44 11.7861C57.25 11.9561 48.13 14.8861 43.44 20.9061C37.6386 28.0923 34.2638 36.9321 33.8 46.1561C32.7007 58.8038 35.6681 71.4722 42.27 82.3161C42.6345 82.1829 43.023 82.1284 43.41 82.1561H43.73C46.1488 82.1123 48.4859 83.0312 50.2271 84.7106C51.9684 86.39 52.9712 88.6923 53.015 91.1111C53.0588 93.5298 52.1399 95.8669 50.4605 97.6082C48.7811 99.3495 46.4788 100.352 44.06 100.396H43.73C41.3703 100.388 39.1049 99.469 37.4058 97.8314C35.7068 96.1939 34.7053 93.9638 34.61 91.6061V91.6361Z" fill="#764ABC"/>
</svg>
