<svg width="128" height="129" viewBox="0 0 128 129" fill="none" xmlns="http://www.w3.org/2000/svg">
<path d="M63.951 0.691437C28.696 0.691437 0.000999451 29.3864 0.000999451 64.6414C0.000999451 99.8964 28.696 128.591 63.951 128.591C99.206 128.591 127.901 99.8964 127.901 64.6414C127.901 29.3864 99.206 0.691437 63.95 0.691437H63.951ZM63.951 11.3704C93.435 11.3704 117.223 35.1574 117.223 64.6414C117.223 94.1264 93.435 117.913 63.951 117.913C34.467 117.913 10.679 94.1264 10.679 64.6414C10.679 35.1574 34.467 11.3704 63.951 11.3704Z" fill="#010101"/>
<path fill-rule="evenodd" clip-rule="evenodd" d="M48.39 61.4064C62.394 49.9664 76.092 38.1284 90.401 27.0224C82.896 38.5554 75.177 49.9354 67.672 61.4674C61.235 61.4974 54.797 61.4974 48.39 61.4064V61.4064ZM60.228 67.7824C66.696 67.7824 73.133 67.7824 79.57 67.8744C65.475 79.2544 51.838 91.1834 37.499 102.258C45.004 90.7254 52.723 79.3154 60.228 67.7824V67.7824Z" fill="#010101"/>
</svg>
