<svg width="128" height="129" viewBox="0 0 128 129" fill="none" xmlns="http://www.w3.org/2000/svg">
<path d="M64.004 26.1555C46.937 26.1555 36.274 34.6855 32.004 51.7525C38.402 43.2215 45.871 40.0225 54.402 42.1555C59.273 43.3695 62.754 46.9015 66.609 50.8155C72.883 57.1825 80.145 64.5535 96.004 64.5535C113.07 64.5535 123.734 56.0225 128.004 38.9515C121.605 47.4875 114.137 50.6865 105.605 48.5535C100.735 47.3385 97.258 43.8075 93.398 39.8935C87.128 33.5265 79.868 26.1555 64.004 26.1555V26.1555ZM32.004 64.5535C14.938 64.5535 4.27403 73.0845 0.00402832 90.1555C6.40203 81.6195 13.87 78.4205 22.402 80.5535C27.273 81.7685 30.754 85.2995 34.609 89.2135C40.883 95.5805 48.145 102.951 64.004 102.951C81.07 102.951 91.734 94.4215 96.004 77.3545C89.605 85.8855 82.137 89.0845 73.605 86.9515C68.735 85.7375 65.258 82.2055 61.398 78.2915C55.128 71.9245 47.868 64.5535 32.004 64.5535Z" fill="#38B2AC"/>
</svg>
