<svg width="128" height="129" viewBox="0 0 128 129" fill="none" xmlns="http://www.w3.org/2000/svg">
<path d="M14.9849 28.0931C14.7479 21.2781 20.0569 14.9941 27.2339 14.9941H100.774C107.951 14.9941 113.26 21.2781 113.023 28.0931C112.795 34.6391 113.091 43.1191 115.225 50.0331C117.366 56.9691 120.976 61.3521 126.889 61.9161V68.3031C120.976 68.8671 117.366 73.2501 115.225 80.1861C113.091 87.1001 112.795 95.5801 113.023 102.126C113.26 108.941 107.951 115.224 100.774 115.224H27.2339C20.0569 115.224 14.7479 108.94 14.9849 102.126C15.2129 95.5801 14.9169 87.1001 12.7819 80.1861C10.6419 73.2511 7.02189 68.8671 1.10889 68.3031V61.9161C7.02189 61.3531 10.6419 56.9691 12.7819 50.0331C14.9169 43.1191 15.2119 34.6391 14.9849 28.0931V28.0931Z" fill="url(#paint0_linear_443_62)"/>
<g filter="url(#filter0_d_443_62)">
<path d="M67.1097 92.1168C78.7286 92.1168 85.7302 86.4278 85.7302 77.0443C85.7302 69.9514 80.7344 64.8164 73.3165 64.0035V63.708C78.7665 62.8214 83.0432 57.7603 83.0432 52.1081C83.0432 44.0547 76.685 38.8086 66.9962 38.8086H45.1963V92.1168H67.1097ZM53.674 45.5692H64.9525C71.0837 45.5692 74.5654 48.3029 74.5654 53.2532C74.5654 58.5361 70.516 61.4914 63.1737 61.4914H53.674V45.5692ZM53.674 85.3562V67.8085H64.8766C72.9001 67.8085 77.0633 70.7638 77.0633 76.527C77.0633 82.2899 73.0138 85.3562 65.3687 85.3562H53.674Z" fill="url(#paint1_linear_443_62)"/>
<path d="M67.1097 92.1168C78.7286 92.1168 85.7302 86.4278 85.7302 77.0443C85.7302 69.9514 80.7344 64.8164 73.3165 64.0035V63.708C78.7665 62.8214 83.0432 57.7603 83.0432 52.1081C83.0432 44.0547 76.685 38.8086 66.9962 38.8086H45.1963V92.1168H67.1097ZM53.674 45.5692H64.9525C71.0837 45.5692 74.5654 48.3029 74.5654 53.2532C74.5654 58.5361 70.516 61.4914 63.1737 61.4914H53.674V45.5692ZM53.674 85.3562V67.8085H64.8766C72.9001 67.8085 77.0633 70.7638 77.0633 76.527C77.0633 82.2899 73.0138 85.3562 65.3687 85.3562H53.674Z" stroke="white" stroke-width="0.24566"/>
</g>
<defs>
<filter id="filter0_d_443_62" x="41.1429" y="35.7378" width="48.6407" height="61.415" filterUnits="userSpaceOnUse" color-interpolation-filters="sRGB">
<feFlood flood-opacity="0" result="BackgroundImageFix"/>
<feColorMatrix in="SourceAlpha" type="matrix" values="0 0 0 0 0 0 0 0 0 0 0 0 0 0 0 0 0 0 127 0" result="hardAlpha"/>
<feOffset dy="0.98264"/>
<feGaussianBlur stdDeviation="1.96528"/>
<feColorMatrix type="matrix" values="0 0 0 0 0 0 0 0 0 0 0 0 0 0 0 0 0 0 0.15 0"/>
<feBlend mode="normal" in2="BackgroundImageFix" result="effect1_dropShadow_443_62"/>
<feBlend mode="normal" in="SourceGraphic" in2="effect1_dropShadow_443_62" result="shape"/>
</filter>
<linearGradient id="paint0_linear_443_62" x1="19.7995" y1="17.6468" x2="129.708" y2="104.893" gradientUnits="userSpaceOnUse">
<stop stop-color="#9013FE"/>
<stop offset="1" stop-color="#6610F2"/>
</linearGradient>
<linearGradient id="paint1_linear_443_62" x1="49.0315" y1="42.3166" x2="73.5975" y2="83.8651" gradientUnits="userSpaceOnUse">
<stop stop-color="white"/>
<stop offset="1" stop-color="#F1E5FC"/>
</linearGradient>
</defs>
</svg>
