<svg width="128" height="129" viewBox="0 0 128 129" fill="none" xmlns="http://www.w3.org/2000/svg">
<path d="M27.35 80.9008L38.03 12.4608C38.4 10.1308 41.53 9.57084 42.63 11.6608L54.11 33.1408L27.35 80.9008V80.9008ZM103.29 97.5308L93.1 34.4908C92.79 32.5308 90.34 31.7308 88.93 33.1408L24.71 97.5308L60.25 117.481C61.3498 118.086 62.5847 118.403 63.84 118.403C65.0953 118.403 66.3302 118.086 67.43 117.481L103.29 97.5308V97.5308ZM74.44 42.5308L66.21 26.8808C65.29 25.1008 62.77 25.1008 61.85 26.8808L25.7 91.3308L74.44 42.5308V42.5308Z" fill="#F58220"/>
</svg>
