<svg width="128" height="129" viewBox="0 0 128 129" fill="none" xmlns="http://www.w3.org/2000/svg">
<path fill-rule="evenodd" clip-rule="evenodd" d="M90.491 57.7998C90.121 53.0098 88.995 48.3908 87.429 43.8658C84.185 33.7618 78.979 24.8198 71.646 17.1258C69.792 15.1798 67.73 13.3968 66.437 10.9748C65.619 9.44281 64.84 7.88982 64.043 6.34582L63.538 5.07281C63.453 5.36481 63.399 5.46882 63.396 5.57382C63.331 8.09082 61.905 9.79782 60.129 11.3908C58.132 13.1838 56.273 15.1298 54.354 17.0088L48.453 24.7718C46.861 27.6968 45.271 30.6218 43.681 33.5468L40.491 42.1638L40.395 42.2978C38.639 48.0658 37.773 53.9958 37.347 59.9858C37.187 62.2368 37.369 64.5208 37.496 66.7838C37.677 70.0188 38.239 73.1988 39.082 76.3288C42.144 87.7008 48.358 97.1338 56.853 105.148C58.432 106.637 60.052 107.991 61.7 109.408C61.982 108.443 62.207 107.478 62.463 106.513C62.719 105.552 62.978 104.596 63.151 103.632C62.977 104.596 62.782 105.552 62.589 106.513L61.763 109.408L62.501 111.909L63.185 115.793L63.511 119.846C63.508 120.669 63.475 121.494 63.525 122.316C63.537 122.526 63.813 122.72 63.967 122.922L65.343 123.405L66.777 123.963L66.531 120.36L66.52 116.812L67.015 111.407L67.374 110.23L68.401 108.41C69.669 107.39 71.03 106.464 72.185 105.329C74.275 103.275 76.36 101.195 78.23 98.9458C80.664 96.0308 82.7423 92.8363 84.421 89.4298C85.543 87.1458 86.599 84.8158 87.473 82.4288C88.243 80.3248 88.72 78.1138 89.327 75.9498C89.381 75.7938 89.453 75.6408 89.487 75.4818C90.741 69.6408 90.952 63.7408 90.491 57.7998V57.7998ZM66.892 107.175L66.087 105.412L66.892 107.175L68.075 108.185L66.892 107.175Z" fill="#4FAA41"/>
</svg>
