<svg width="128" height="129" viewBox="0 0 128 129" fill="none" xmlns="http://www.w3.org/2000/svg">
<path d="M22.67 47.6904H122.34V121.36H22.67V47.6904Z" fill="white"/>
<path d="M1.5 64.6004V127.1H126.5V2.10043H1.5V64.6004ZM102.23 59.6004C105.224 60.2952 107.945 61.861 110.05 64.1004C111.209 65.3069 112.216 66.6501 113.05 68.1004C113.05 68.2604 107.65 71.9104 104.36 73.9504C104.24 74.0304 103.76 73.5104 103.23 72.7204C102.629 71.6841 101.776 70.8168 100.75 70.1995C99.7231 69.5822 98.557 69.2351 97.36 69.1904C93.57 68.9304 91.13 70.9204 91.15 74.1904C91.1187 75.0046 91.3051 75.8123 91.69 76.5304C92.52 78.2604 94.07 79.2904 98.93 81.3904C107.88 85.2404 111.71 87.7804 114.09 91.3904C116.75 95.3904 117.34 101.85 115.54 106.63C113.54 111.83 108.64 115.36 101.71 116.53C98.5448 116.893 95.3468 116.859 92.19 116.43C87.3516 115.633 82.8948 113.31 79.47 109.8C78.32 108.53 76.08 105.22 76.22 104.98C76.5851 104.709 76.9694 104.465 77.37 104.25L82 101.69L85.59 99.6104L86.34 100.72C87.6057 102.531 89.2166 104.074 91.08 105.26C95.08 107.36 100.54 107.07 103.24 104.64C104.147 103.75 104.712 102.57 104.838 101.305C104.964 100.041 104.643 98.7723 103.93 97.7204C102.93 96.3304 100.93 95.1604 95.34 92.7204C88.89 89.9404 86.11 88.2204 83.57 85.4804C81.9843 83.6723 80.8136 81.5391 80.14 79.2304C79.6375 76.5929 79.5633 73.8916 79.92 71.2304C81.25 65.0004 85.92 60.6504 92.74 59.3604C95.8984 58.9696 99.0977 59.0573 102.23 59.6204V59.6004ZM72.89 64.8404V69.9604H56.66V116.19H45.15V69.9504H28.88V64.9504C28.8293 63.2262 28.8694 61.5005 29 59.7804C29.08 59.6904 39 59.6904 51 59.6904H72.83L72.89 64.8404Z" fill="#007ACC"/>
</svg>
